<?xml version="1.0" encoding="UTF-8" standalone="no"?>
<svg
   xmlns:dc="http://purl.org/dc/elements/1.1/"
   xmlns:cc="http://creativecommons.org/ns#"
   xmlns:rdf="http://www.w3.org/1999/02/22-rdf-syntax-ns#"
   xmlns:svg="http://www.w3.org/2000/svg"
   xmlns="http://www.w3.org/2000/svg"
   xmlns:sodipodi="http://sodipodi.sourceforge.net/DTD/sodipodi-0.dtd"
   xmlns:inkscape="http://www.inkscape.org/namespaces/inkscape"
   inkscape:version="1.0.1 (3bc2e813f5, 2020-09-07)"
   inkscape:export-ydpi="244.47"
   inkscape:export-xdpi="244.47"
   inkscape:export-filename="/home/george/Documents/git-repos/bioelectronics-website-content/assets/images/icon.png"
   sodipodi:docname="icon.svg"
   id="svg8"
   version="1.1"
   viewBox="0 0 35.013191 34.852726"
   height="34.852726mm"
   width="35.013191mm">
  <defs
     id="defs2" />
  <sodipodi:namedview
     inkscape:window-maximized="1"
     inkscape:window-y="34"
     inkscape:window-x="3840"
     inkscape:window-height="1014"
     inkscape:window-width="1920"
     fit-margin-bottom="0"
     fit-margin-right="0"
     fit-margin-left="0"
     fit-margin-top="0"
     lock-margins="true"
     showgrid="false"
     inkscape:document-rotation="0"
     inkscape:current-layer="layer1"
     inkscape:document-units="mm"
     inkscape:cy="59.240864"
     inkscape:cx="102.36859"
     inkscape:zoom="3.959798"
     inkscape:pageshadow="2"
     inkscape:pageopacity="0.0"
     borderopacity="1.0"
     bordercolor="#666666"
     pagecolor="#ffffff"
     id="base" />
  <metadata
     id="metadata5">
    <rdf:RDF>
      <cc:Work
         rdf:about="">
        <dc:format>image/svg+xml</dc:format>
        <dc:type
           rdf:resource="http://purl.org/dc/dcmitype/StillImage" />
        <dc:title />
      </cc:Work>
    </rdf:RDF>
  </metadata>
  <g
     transform="translate(41.952707,-43.003242)"
     id="layer1"
     inkscape:groupmode="layer"
     inkscape:label="Layer 1">
    <rect
       style="fill:#ffffff;fill-opacity:1;stroke:none;stroke-width:0.211667;stroke-linecap:round;stroke-dasharray:2.54, 2.54000000000000004;paint-order:stroke fill markers;stop-color:#000000"
       id="rect843"
       width="35.013"
       height="34.853001"
       x="-41.952705"
       y="43.003242"
       rx="7.5"
       ry="7.5" />
    <g
       transform="translate(-21.23962,-16.990592)"
       id="g872">
      <path
         sodipodi:nodetypes="scsscsscsssssssscsscccscssccccssscssscsssscc"
         id="path876"
         d="m 1.5560089,94.790699 c 1.1399132,-0.03072 3.0052256,-0.03072 4.1451387,0 1.1399132,0.03073 0.207257,0.05586 -2.0725693,0.05586 -2.2798263,0 -3.21248253,-0.02514 -2.0725694,-0.05586 z M 0.38178637,93.836485 C 0.34142859,93.706146 0.21371951,92.964505 0.09798547,92.188394 -0.36083023,89.111545 -1.7232297,85.90134 -3.7112047,83.212841 l -1.1572804,-1.565084 1.1176281,-1.015676 c 0.9297123,-0.844899 1.1739051,-0.98598 1.4523226,-0.839067 0.821884,0.433682 2.62577603,-0.775369 2.85316776,-1.912322 0.0929958,-0.464981 -0.0136172,-0.684021 -0.770322,-1.582652 -1.66571426,-1.97813 -2.08896116,-2.365897 -2.58237906,-2.365897 -1.1017832,0 -2.3927981,1.191301 -2.3927981,2.207985 0,0.32638 0.079375,0.642474 0.1763889,0.702432 0.3131996,0.193568 0.197589,0.342946 -1.1098604,1.434037 l -1.2862492,1.073396 -0.962709,-0.696422 c -2.5349085,-1.833746 -6.7845495,-3.401613 -9.8545315,-3.63574 l -1.515122,-0.115549 -0.04736,-4.22105 c -0.0385,-3.430861 0.0048,-4.400633 0.231508,-5.180341 0.525617,-1.80806 1.749103,-3.211946 3.520023,-4.039043 l 1.058333,-0.494288 11.5354257,-0.04904 C 8.9413325,60.86586 9.0318394,60.87138 10.486157,61.76869 l 0.595771,0.367586 -4.4763265,4.521906 -4.4763247,4.521907 -0.8896738,0.009 c -1.0279891,0.01041 -1.69797581,0.377853 -2.20489276,1.209223 -0.93473584,1.533011 0.20718109,3.532893 2.01725376,3.532893 1.487992,0 2.439035,-1.00834 2.4269135,-2.573128 l -0.007,-0.903575 4.4300138,-4.461246 c 3.2499427,-3.272854 4.4873177,-4.413689 4.6451307,-4.282716 0.118315,0.09819 0.40241,0.592751 0.631324,1.099019 l 0.416211,0.920488 0.05033,11.266408 c 0.05555,12.434491 0.06293,12.335697 -1.05286,14.088969 -0.644493,1.012711 -1.532835,1.741146 -2.9069719,2.383697 -1.0130789,0.47372 -1.0943395,0.482319 -5.1296338,0.542837 -3.3188821,0.04977 -4.11423191,0.01633 -4.17362733,-0.175486 z"
         style="fill:#4eaffd;stroke-width:0.176389" />
      <path
         sodipodi:nodetypes="ssscssscccsssssscssssscssscssssscccssscscscsssccssscssscssscccccscssccsscsssssssccssssssssssssss"
         id="path874"
         d="m -15.59781,94.415323 c -2.547124,-0.818477 -4.428418,-2.974811 -4.937539,-5.659396 -0.106882,-0.563587 -0.177738,-5.115258 -0.177738,-11.417552 0,-8.923385 0.04146,-10.662635 0.279091,-11.707412 0.627161,-2.75742 2.921073,-4.908857 5.801716,-5.441372 1.371331,-0.253505 21.7133867,-0.264212 23.0426162,-0.01213 2.3483338,0.445353 4.3588568,1.969475 5.3461728,4.052787 l 0.543597,1.147033 v 12.08264 12.082639 l -0.464815,0.991308 C 12.980248,92.35742 11.434215,93.724623 9.4844457,94.381452 8.4331433,94.735611 8.0730507,94.745761 -3.1127314,94.736546 -13.622828,94.727889 -14.71233,94.699857 -15.59781,94.415323 Z M -0.53336501,93.114435 C -1.0007832,89.419582 -2.7661237,85.472009 -5.285913,82.487005 l -0.7444926,-0.881945 1.7489532,-1.565068 c 1.6411927,-1.468639 1.7684432,-1.547432 2.0652563,-1.27882 0.1739671,0.157438 0.4550639,0.286249 0.6246618,0.286249 0.4086596,0 1.34090655,-0.945497 1.33448071,-1.353446 -0.002787,-0.177235 -0.57826097,-0.935748 -1.27881941,-1.685582 l -1.2737429,-1.363334 -0.5618498,0.247589 c -0.3090156,0.136174 -0.685359,0.486433 -0.8363178,0.778353 -0.2609533,0.50463 -0.2534197,0.555781 0.1529944,1.038777 l 0.4274626,0.508011 -1.8236679,1.532177 c -1.0030178,0.842698 -1.8733008,1.532178 -1.9339625,1.532178 -0.060662,0 -0.7229011,-0.427258 -1.4716429,-0.949463 -1.6772622,-1.169795 -3.3916622,-2.032275 -5.2419042,-2.637099 -1.486827,-0.486025 -4.130733,-0.99955 -5.146233,-0.99955 h -0.602106 l 0.05195,6.746875 0.05195,6.746875 0.474164,1.01173 c 0.848654,1.810787 2.701296,3.275833 4.624725,3.657178 0.39707,0.07873 3.760772,0.151831 7.4748946,0.16246 l 6.75295083,0.01933 z M -15.509615,92.470129 c -0.877889,-0.407961 -1.924041,-1.483512 -2.284443,-2.348639 -0.347184,-0.833397 -0.351765,-2.552665 -0.009,-3.373044 0.621339,-1.487073 2.055472,-2.541729 3.682954,-2.708431 3.210729,-0.32887 5.5960396,2.659241 4.6577739,5.834858 -0.2862633,0.968876 -1.7474969,2.430108 -2.7163719,2.716372 -1.057285,0.312384 -2.511895,0.259494 -3.330924,-0.121116 z m 25.1946625,0.999005 c 1.3741365,-0.642551 2.2624785,-1.370986 2.9069715,-2.383697 1.11579,-1.753272 1.108409,-1.654478 1.05286,-14.088969 L 13.59455,65.73006 13.178343,64.809572 c -0.228914,-0.506268 -0.51301,-1.000827 -0.631324,-1.099019 -0.157814,-0.130973 -1.395189,1.009862 -4.6451308,4.282716 l -4.4300138,4.461246 0.007,0.903575 c 0.012118,1.564788 -0.9389215,2.573128 -2.4269134,2.573128 -1.81007274,0 -2.9519897,-1.999882 -2.01725383,-3.532893 0.50691695,-0.83137 1.17690366,-1.198808 2.20489273,-1.209223 l 0.8896738,-0.009 4.4763247,-4.521907 4.4763266,-4.521906 -0.595772,-0.367586 C 9.0318389,60.871385 8.941332,60.865862 -3.4450198,60.91852 l -11.5354292,0.04904 -1.058333,0.494288 c -1.77092,0.827097 -2.994406,2.230983 -3.520023,4.039043 -0.226667,0.779708 -0.270006,1.74948 -0.231508,5.180341 l 0.04736,4.22105 1.515122,0.115549 c 3.069982,0.234127 7.319623,1.801994 9.8545315,3.63574 l 0.962709,0.696422 1.2862492,-1.073396 c 1.3074494,-1.091091 1.42306,-1.240469 1.1098604,-1.434037 -0.097014,-0.05996 -0.1763889,-0.376052 -0.1763889,-0.702432 0,-1.016684 1.2910149,-2.207985 2.3927981,-2.207985 0.4934179,0 0.9166648,0.387767 2.58237906,2.365897 0.75670478,0.898631 0.86331775,1.117671 0.770322,1.582652 -0.22739173,1.136953 -2.03128376,2.346004 -2.85316776,1.912322 -0.2784175,-0.146913 -0.5226103,-0.0058 -1.4523226,0.839067 l -1.1176281,1.015676 1.1572804,1.565084 c 1.987975,2.688499 3.35037447,5.898704 3.80919017,8.975553 0.11573404,0.776111 0.24344312,1.517752 0.2838009,1.648091 0.0593954,0.191819 0.85474523,0.225261 4.17362733,0.175486 4.0352943,-0.06052 4.1165549,-0.06912 5.1296338,-0.542837 z M 2.2310351,74.651267 c 0.5456202,-0.54562 0.6583767,-1.181088 0.3213188,-1.810885 -0.1755264,-0.327977 0.2532644,-0.811727 4.4425974,-5.012011 2.5502816,-2.556948 4.5848847,-4.700988 4.5213387,-4.764534 -0.06354,-0.06354 -2.1889962,1.997569 -4.7232229,4.580255 -3.9435985,4.019004 -4.654548,4.670712 -4.9328244,4.521782 -1.05814809,-0.566303 -2.2886087,0.171218 -2.2886087,1.371761 0,1.505849 1.5980127,2.175021 2.6594011,1.113632 z"
         style="fill:#fb6907;stroke-width:0.176389" />
    </g>
  </g>
</svg>
