<?xml version="1.0" encoding="UTF-8" standalone="no"?>
<svg
   xmlns:dc="http://purl.org/dc/elements/1.1/"
   xmlns:cc="http://creativecommons.org/ns#"
   xmlns:rdf="http://www.w3.org/1999/02/22-rdf-syntax-ns#"
   xmlns:svg="http://www.w3.org/2000/svg"
   xmlns="http://www.w3.org/2000/svg"
   xmlns:sodipodi="http://sodipodi.sourceforge.net/DTD/sodipodi-0.dtd"
   xmlns:inkscape="http://www.inkscape.org/namespaces/inkscape"
   inkscape:version="1.0.1 (3bc2e813f5, 2020-09-07)"
   inkscape:export-ydpi="244.47"
   inkscape:export-xdpi="244.47"
   inkscape:export-filename="/home/george/Documents/git-repos/bioelectronics-website-content/assets/images/logo.png"
   sodipodi:docname="logo.svg"
   id="svg8"
   version="1.1"
   viewBox="0 0 150.00204 16.101999"
   height="16.101999mm"
   width="150.00204mm">
  <defs
     id="defs2" />
  <sodipodi:namedview
     fit-margin-bottom="0"
     fit-margin-right="0"
     fit-margin-left="0"
     fit-margin-top="0"
     inkscape:window-maximized="1"
     inkscape:window-y="34"
     inkscape:window-x="3840"
     inkscape:window-height="1014"
     inkscape:window-width="1920"
     lock-margins="true"
     showgrid="false"
     inkscape:document-rotation="0"
     inkscape:current-layer="layer1"
     inkscape:document-units="mm"
     inkscape:cy="199.62173"
     inkscape:cx="35.075398"
     inkscape:zoom="0.98994949"
     inkscape:pageshadow="2"
     inkscape:pageopacity="0.0"
     borderopacity="1.0"
     bordercolor="#666666"
     pagecolor="#ffffff"
     id="base" />
  <metadata
     id="metadata5">
    <rdf:RDF>
      <cc:Work
         rdf:about="">
        <dc:format>image/svg+xml</dc:format>
        <dc:type
           rdf:resource="http://purl.org/dc/dcmitype/StillImage" />
        <dc:title />
      </cc:Work>
    </rdf:RDF>
  </metadata>
  <g
     transform="translate(41.952708,-43.003243)"
     id="layer1"
     inkscape:groupmode="layer"
     inkscape:label="Layer 1">
    <rect
       style="fill:#ffffff;fill-opacity:1;stroke:none;stroke-width:0.211667;stroke-linecap:round;stroke-dasharray:2.54, 2.54000000000000004;paint-order:stroke fill markers;stop-color:#000000"
       id="rect930"
       width="16.101999"
       height="16.101999"
       x="-41.952709"
       y="43.003242"
       rx="4"
       ry="4" />
    <g
       transform="matrix(0.46200118,0,0,0.46200118,-32.383237,15.286021)"
       id="g872">
      <path
         id="path876"
         d="m 1.5560089,94.790699 c 1.1399132,-0.03072 3.0052256,-0.03072 4.1451387,0 1.1399132,0.03073 0.207257,0.05586 -2.0725693,0.05586 -2.2798263,0 -3.21248253,-0.02514 -2.0725694,-0.05586 z M 0.38178637,93.836485 C 0.34142859,93.706146 0.21371951,92.964505 0.09798547,92.188394 -0.36083023,89.111545 -1.7232297,85.90134 -3.7112047,83.212841 l -1.1572804,-1.565084 1.1176281,-1.015676 c 0.9297123,-0.844899 1.1739051,-0.98598 1.4523226,-0.839067 0.821884,0.433682 2.62577603,-0.775369 2.85316776,-1.912322 0.0929958,-0.464981 -0.0136172,-0.684021 -0.770322,-1.582652 -1.66571426,-1.97813 -2.08896116,-2.365897 -2.58237906,-2.365897 -1.1017832,0 -2.3927981,1.191301 -2.3927981,2.207985 0,0.32638 0.079375,0.642474 0.1763889,0.702432 0.3131996,0.193568 0.197589,0.342946 -1.1098604,1.434037 l -1.2862492,1.073396 -0.962709,-0.696422 c -2.5349085,-1.833746 -6.7845495,-3.401613 -9.8545315,-3.63574 l -1.515122,-0.115549 -0.04736,-4.22105 c -0.0385,-3.430861 0.0048,-4.400633 0.231508,-5.180341 0.525617,-1.80806 1.749103,-3.211946 3.520023,-4.039043 l 1.058333,-0.494288 11.5354257,-0.04904 C 8.9413325,60.86586 9.0318394,60.87138 10.486157,61.76869 l 0.595771,0.367586 -4.4763265,4.521906 -4.4763247,4.521907 -0.8896738,0.009 c -1.0279891,0.01041 -1.69797581,0.377853 -2.20489276,1.209223 -0.93473584,1.533011 0.20718109,3.532893 2.01725376,3.532893 1.487992,0 2.439035,-1.00834 2.4269135,-2.573128 l -0.007,-0.903575 4.4300138,-4.461246 c 3.2499427,-3.272854 4.4873177,-4.413689 4.6451307,-4.282716 0.118315,0.09819 0.40241,0.592751 0.631324,1.099019 l 0.416211,0.920488 0.05033,11.266408 c 0.05555,12.434491 0.06293,12.335697 -1.05286,14.088969 -0.644493,1.012711 -1.532835,1.741146 -2.9069719,2.383697 -1.0130789,0.47372 -1.0943395,0.482319 -5.1296338,0.542837 -3.3188821,0.04977 -4.11423191,0.01633 -4.17362733,-0.175486 z M 213.61954,89.735556 c -3.50638,-0.682875 -5.85558,-2.435639 -7.31673,-5.459058 -0.87486,-1.810256 -1.22015,-3.23612 -1.35178,-5.581854 -0.29979,-5.342461 2.02927,-10.142064 5.81719,-11.987813 1.77258,-0.86373 3.11231,-1.134979 5.49716,-1.112986 5.71491,0.0527 9.31878,2.664425 10.70255,7.75613 0.53959,1.985453 0.53624,6.067607 -0.007,8.068462 -1.09737,4.044663 -3.60905,6.839689 -7.15433,7.961373 -1.76581,0.558682 -4.3751,0.708702 -6.18744,0.355746 z m 5.51455,-3.132224 c 2.05901,-0.660329 3.5548,-2.476613 4.47949,-5.439244 0.35689,-1.143429 0.41114,-1.669928 0.39992,-3.880556 -0.0109,-2.170523 -0.0712,-2.715669 -0.39763,-3.601733 -0.81478,-2.211471 -2.40972,-3.99165 -4.22813,-4.719175 -0.8515,-0.340675 -1.33025,-0.40237 -3.12236,-0.40237 -2.68613,0 -3.65764,0.341823 -5.27707,1.85671 -2.01938,1.889043 -2.87704,4.515651 -2.70284,8.27768 0.18533,4.002302 2.02468,6.965801 4.88186,7.865457 2.07686,0.653953 4.01857,0.668022 5.96676,0.04323 z m 73.67993,3.217944 c -2.60106,-0.417583 -4.53917,-1.482325 -5.73306,-3.149574 -0.815,-1.138128 -1.40656,-2.86882 -1.40656,-4.115084 v -0.863363 h 1.47659 1.47657 l 0.11564,0.871687 c 0.24422,1.841017 1.34551,3.354472 2.97658,4.09055 0.82195,0.370941 1.18034,0.416169 3.30323,0.416855 2.24167,7.05e-4 2.44325,-0.02826 3.43907,-0.494492 1.82069,-0.852433 2.43816,-1.692184 2.43966,-3.317872 0.002,-1.521744 -0.44382,-2.236167 -1.82923,-2.935354 -0.6265,-0.316181 -1.97252,-0.773203 -2.99117,-1.015604 -1.01864,-0.2424 -2.68552,-0.641133 -3.70416,-0.886073 -3.21518,-0.773111 -4.75072,-1.723831 -5.54071,-3.430495 -0.29184,-0.630499 -0.36557,-1.125371 -0.35511,-2.38323 0.0164,-1.97556 0.46188,-3.223395 1.60419,-4.493917 1.56959,-1.745775 3.51222,-2.475148 6.58087,-2.470837 3.94013,0.0055 6.75616,1.337692 7.92766,3.75027 0.50698,1.044038 0.99004,3.18356 0.79137,3.505009 -0.15439,0.249803 -2.89602,0.185051 -2.96552,-0.07004 -0.70189,-2.576498 -1.28245,-3.343386 -3.03952,-4.014974 -1.24068,-0.474218 -3.7429,-0.571753 -5.03994,-0.196455 -2.16258,0.62574 -3.39894,2.877405 -2.60043,4.735891 0.53735,1.250628 1.3398,1.585211 6.87047,2.864654 4.40279,1.018527 6.02617,1.926801 6.94718,3.886926 0.54603,1.16209 0.54367,4.48151 -0.004,5.666034 -0.82303,1.779969 -2.76497,3.145458 -5.35565,3.765873 -1.38684,0.332119 -4.16898,0.478675 -5.38399,0.283614 z M 146.67996,89.52798 c -2.76915,-0.730573 -4.9222,-2.493994 -6.15421,-5.0405 -0.89131,-1.842306 -1.26501,-3.529296 -1.38091,-6.233809 -0.27314,-6.3737 2.64527,-11.030492 7.76008,-12.382442 1.51165,-0.399563 4.43118,-0.390489 6.07729,0.01889 1.31145,0.326151 2.92696,1.178497 3.81454,2.01255 1.19537,1.123293 2.58321,3.794774 2.58321,4.972447 0,0.345332 -0.0837,0.362436 -1.53836,0.314245 l -1.53836,-0.05097 -0.31688,-0.854761 c -0.67536,-1.821635 -2.06623,-3.190719 -3.73971,-3.681107 -1.23222,-0.361081 -3.9114,-0.255126 -5.08772,0.201208 -2.19341,0.850895 -3.88297,3.060059 -4.46179,5.833966 -0.35574,1.704796 -0.35558,4.871833 3.5e-4,6.406427 0.60043,2.589008 2.16831,4.661819 4.11276,5.437272 1.44251,0.575275 4.50645,0.595833 5.71217,0.03833 1.72572,-0.797948 2.87415,-2.238658 3.5938,-4.508481 l 0.39735,-1.253291 1.47493,0.03899 c 0.8112,0.02144 1.50717,0.07125 1.5466,0.110669 0.19152,0.191531 -0.4108,2.269215 -1.0377,3.57954 -1.23467,2.580603 -3.48511,4.410734 -6.21524,5.054427 -1.39397,0.32866 -4.3319,0.321528 -5.60216,-0.0136 z m 123.11944,0 c -2.76915,-0.730573 -4.9222,-2.493994 -6.15421,-5.0405 -0.89131,-1.842306 -1.26501,-3.529296 -1.38091,-6.233809 -0.27314,-6.3737 2.64527,-11.030492 7.76007,-12.382442 1.51167,-0.399563 4.43119,-0.390489 6.0773,0.01889 1.31145,0.326151 2.92696,1.178497 3.81454,2.01255 1.19537,1.123293 2.58321,3.794774 2.58321,4.972447 0,0.345332 -0.0837,0.362436 -1.53836,0.314245 l -1.53836,-0.05097 -0.31688,-0.854761 c -0.67536,-1.821635 -2.06624,-3.190719 -3.73971,-3.681107 -1.23221,-0.361081 -3.9114,-0.255126 -5.08772,0.201208 -2.19342,0.850895 -3.88297,3.060059 -4.46179,5.833966 -0.35575,1.704796 -0.35559,4.871833 0,6.406427 0.60042,2.589008 2.16831,4.661819 4.11277,5.437272 1.44249,0.575275 4.50643,0.595833 5.71216,0.03833 1.72571,-0.797948 2.87415,-2.238658 3.5938,-4.508481 l 0.39735,-1.253291 1.47493,0.03899 c 0.81119,0.02144 1.50717,0.07125 1.54659,0.110669 0.19152,0.191531 -0.41079,2.269215 -1.03769,3.57954 -1.23467,2.580603 -3.48511,4.410734 -6.21524,5.054427 -1.39397,0.32866 -4.3319,0.321528 -5.60217,-0.0136 z M 79.828575,77.726198 V 66.171032 h 8.378472 8.378472 v 1.40904 1.40904 l -6.835069,0.04617 -6.835069,0.04617 v 3.439583 3.439584 l 6.305902,0.04632 6.305903,0.04632 v 1.320689 1.320689 h -6.35 -6.35 v 3.880555 3.880556 h 7.062974 7.062976 l -0.05152,1.367014 -0.05152,1.367013 -8.510763,0.04579 -8.510764,0.04579 z m 20.990275,-0.0018 V 66.170962 h 1.5875 1.5875 v 10.142361 10.142361 h 5.82084 5.82083 v 1.411111 1.411111 h -7.40833 -7.40834 z m 18.34445,0.0018 V 66.171032 h 8.37847 8.37847 v 1.40904 1.40904 l -6.83507,0.04617 -6.83507,0.04617 v 3.439583 3.439584 l 6.3059,0.04632 6.30591,0.04632 v 1.320689 1.320689 h -6.35 -6.35 v 3.880555 3.880556 h 7.06297 7.06298 l -0.0515,1.367014 -0.0515,1.367013 -8.51076,0.04579 -8.51076,0.04579 z m 50.09444,1.409418 V 68.993255 h -3.88056 -3.88055 v -1.411112 -1.411111 h 9.34861 9.34861 v 1.411111 1.411112 h -3.88056 -3.88055 v 10.142361 10.142361 h -1.5875 -1.5875 z m 14.11111,-1.411111 V 66.171032 h 6.06134 c 3.33373,0 6.45188,0.07406 6.92919,0.164586 1.6861,0.319761 2.9177,0.90435 3.78827,1.79813 1.12294,1.152884 1.47965,2.217546 1.46995,4.387284 -0.01,2.194102 -0.41677,3.163824 -1.88567,4.493096 l -1.04914,0.949412 0.50102,0.261609 c 1.48447,0.775136 1.94689,1.906498 2.08364,5.097932 0.0551,1.286408 0.14221,2.741032 0.19348,3.232499 0.0939,0.899598 0.62308,2.016841 0.95533,2.016841 0.0984,0 0.17898,0.15875 0.17898,0.352778 0,0.331445 -0.1176,0.352778 -1.94466,0.352778 -1.91893,0 -1.94687,-0.0059 -2.11456,-0.446964 -0.0935,-0.24583 -0.25199,-1.892861 -0.35229,-3.66007 -0.19854,-3.498619 -0.45159,-4.407671 -1.42298,-5.111827 -0.76112,-0.551741 -1.6688,-0.65033 -6.02767,-0.654708 l -4.18923,-0.0042 v 4.938889 4.938889 h -1.5875 -1.5875 z m 13.14097,-1.5875 c 1.39106,-0.695525 1.85387,-1.533067 1.8482,-3.344667 -0.006,-2.000446 -0.67107,-3.052917 -2.27139,-3.595715 -0.39051,-0.132449 -2.15893,-0.203368 -5.07118,-0.203368 h -4.4716 v 3.896126 3.896126 l 4.45382,-0.05967 4.45382,-0.05967 z m 34.66042,1.5875 V 66.171032 l 1.89618,0.0065 1.89618,0.0065 5.73264,9.209789 5.73263,9.209789 0.0457,-9.21632 0.0457,-9.216319 h 1.49773 1.49774 v 11.553472 11.553472 l -1.80799,-0.0044 -1.80798,-0.0044 -5.82084,-9.21191 -5.82083,-9.211909 -0.0457,9.216319 -0.0457,9.216319 h -1.49774 -1.49773 V 77.724503 Z m 23.98888,0 V 66.171032 h 1.5875 1.5875 v 11.553473 11.553472 h -1.5875 -1.5875 z"
         style="fill:#4eaffd;stroke-width:0.176389" />
      <path
         id="path874"
         d="m -15.59781,94.415323 c -2.547124,-0.818477 -4.428418,-2.974811 -4.937539,-5.659396 -0.106882,-0.563587 -0.177738,-5.115258 -0.177738,-11.417552 0,-8.923385 0.04146,-10.662635 0.279091,-11.707412 0.627161,-2.75742 2.921073,-4.908857 5.801716,-5.441372 1.371331,-0.253505 21.7133867,-0.264212 23.0426162,-0.01213 2.3483338,0.445353 4.3588568,1.969475 5.3461728,4.052787 l 0.543597,1.147033 v 12.08264 12.082639 l -0.464815,0.991308 C 12.980248,92.35742 11.434215,93.724623 9.4844457,94.381452 8.4331433,94.735611 8.0730507,94.745761 -3.1127314,94.736546 -13.622828,94.727889 -14.71233,94.699857 -15.59781,94.415323 Z M -0.53336501,93.114435 C -1.0007832,89.419582 -2.7661237,85.472009 -5.285913,82.487005 l -0.7444926,-0.881945 1.7489532,-1.565068 c 1.6411927,-1.468639 1.7684432,-1.547432 2.0652563,-1.27882 0.1739671,0.157438 0.4550639,0.286249 0.6246618,0.286249 0.4086596,0 1.34090655,-0.945497 1.33448071,-1.353446 -0.002787,-0.177235 -0.57826097,-0.935748 -1.27881941,-1.685582 l -1.2737429,-1.363334 -0.5618498,0.247589 c -0.3090156,0.136174 -0.685359,0.486433 -0.8363178,0.778353 -0.2609533,0.50463 -0.2534197,0.555781 0.1529944,1.038777 l 0.4274626,0.508011 -1.8236679,1.532177 c -1.0030178,0.842698 -1.8733008,1.532178 -1.9339625,1.532178 -0.060662,0 -0.7229011,-0.427258 -1.4716429,-0.949463 -1.6772622,-1.169795 -3.3916622,-2.032275 -5.2419042,-2.637099 -1.486827,-0.486025 -4.130733,-0.99955 -5.146233,-0.99955 h -0.602106 l 0.05195,6.746875 0.05195,6.746875 0.474164,1.01173 c 0.848654,1.810787 2.701296,3.275833 4.624725,3.657178 0.39707,0.07873 3.760772,0.151831 7.4748946,0.16246 l 6.75295083,0.01933 z M -15.509615,92.470129 c -0.877889,-0.407961 -1.924041,-1.483512 -2.284443,-2.348639 -0.347184,-0.833397 -0.351765,-2.552665 -0.009,-3.373044 0.621339,-1.487073 2.055472,-2.541729 3.682954,-2.708431 3.210729,-0.32887 5.5960396,2.659241 4.6577739,5.834858 -0.2862633,0.968876 -1.7474969,2.430108 -2.7163719,2.716372 -1.057285,0.312384 -2.511895,0.259494 -3.330924,-0.121116 z m 25.1946625,0.999005 c 1.3741365,-0.642551 2.2624785,-1.370986 2.9069715,-2.383697 1.11579,-1.753272 1.108409,-1.654478 1.05286,-14.088969 L 13.59455,65.73006 13.178343,64.809572 c -0.228914,-0.506268 -0.51301,-1.000827 -0.631324,-1.099019 -0.157814,-0.130973 -1.395189,1.009862 -4.6451308,4.282716 l -4.4300138,4.461246 0.007,0.903575 c 0.012118,1.564788 -0.9389215,2.573128 -2.4269134,2.573128 -1.81007274,0 -2.9519897,-1.999882 -2.01725383,-3.532893 0.50691695,-0.83137 1.17690366,-1.198808 2.20489273,-1.209223 l 0.8896738,-0.009 4.4763247,-4.521907 4.4763266,-4.521906 -0.595772,-0.367586 C 9.0318389,60.871385 8.941332,60.865862 -3.4450198,60.91852 l -11.5354292,0.04904 -1.058333,0.494288 c -1.77092,0.827097 -2.994406,2.230983 -3.520023,4.039043 -0.226667,0.779708 -0.270006,1.74948 -0.231508,5.180341 l 0.04736,4.22105 1.515122,0.115549 c 3.069982,0.234127 7.319623,1.801994 9.8545315,3.63574 l 0.962709,0.696422 1.2862492,-1.073396 c 1.3074494,-1.091091 1.42306,-1.240469 1.1098604,-1.434037 -0.097014,-0.05996 -0.1763889,-0.376052 -0.1763889,-0.702432 0,-1.016684 1.2910149,-2.207985 2.3927981,-2.207985 0.4934179,0 0.9166648,0.387767 2.58237906,2.365897 0.75670478,0.898631 0.86331775,1.117671 0.770322,1.582652 -0.22739173,1.136953 -2.03128376,2.346004 -2.85316776,1.912322 -0.2784175,-0.146913 -0.5226103,-0.0058 -1.4523226,0.839067 l -1.1176281,1.015676 1.1572804,1.565084 c 1.987975,2.688499 3.35037447,5.898704 3.80919017,8.975553 0.11573404,0.776111 0.24344312,1.517752 0.2838009,1.648091 0.0593954,0.191819 0.85474523,0.225261 4.17362733,0.175486 4.0352943,-0.06052 4.1165549,-0.06912 5.1296338,-0.542837 z M 2.2310351,74.651267 c 0.5456202,-0.54562 0.6583767,-1.181088 0.3213188,-1.810885 -0.1755264,-0.327977 0.2532644,-0.811727 4.4425974,-5.012011 2.5502816,-2.556948 4.5848847,-4.700988 4.5213387,-4.764534 -0.06354,-0.06354 -2.1889962,1.997569 -4.7232229,4.580255 -3.9435985,4.019004 -4.654548,4.670712 -4.9328244,4.521782 -1.05814809,-0.566303 -2.2886087,0.171218 -2.2886087,1.371761 0,1.505849 1.5980127,2.175021 2.6594011,1.113632 z M 61.925104,89.722429 c -3.439982,-0.638739 -5.999559,-2.520209 -7.39176,-5.433462 -1.030289,-2.155933 -1.236338,-3.213795 -1.244256,-6.388073 -0.0081,-3.261567 0.194418,-4.263071 1.331325,-6.5826 2.055652,-4.193965 6.023504,-6.201482 11.213719,-5.673532 4.229855,0.430262 6.903458,2.16725 8.524859,5.538435 1.001266,2.081816 1.300677,3.819516 1.184897,6.876806 -0.105163,2.776944 -0.366859,3.966755 -1.284977,5.842219 -2.242621,4.581051 -6.976554,6.814949 -12.333807,5.820207 z m 4.056944,-2.736262 c 1.396388,-0.228392 3.073135,-1.071032 3.856401,-1.938013 2.575593,-2.850875 3.325212,-8.569195 1.613478,-12.308114 -1.434505,-3.133373 -4.540908,-4.769086 -8.101873,-4.266139 -3.379403,0.477303 -5.729603,2.730926 -6.554535,6.285188 -0.363567,1.566446 -0.358893,4.901079 0.0088,6.286649 0.68994,2.599805 2.319946,4.676921 4.231417,5.392094 1.708208,0.639122 3.307352,0.8164 4.946301,0.548335 z M 23.9133,77.724505 V 66.171032 h 5.547568 c 3.439052,0 5.902836,0.07545 6.482291,0.198502 2.07053,0.439707 3.369006,1.415132 4.176783,3.137633 0.634769,1.353578 0.652544,3.581771 0.03811,4.777754 -0.484918,0.943887 -1.321781,1.868558 -2.023625,2.235957 l -0.50734,0.265582 1.036507,0.522643 c 1.326146,0.668691 1.905418,1.231669 2.483896,2.414038 0.630472,1.288637 0.757685,3.276924 0.302297,4.724724 -0.471195,1.498052 -1.685553,2.999772 -3.008985,3.721028 -1.793056,0.977196 -2.815052,1.102577 -9.015354,1.106022 l -5.512152,0.0031 z m 12.015707,8.459164 c 0.94569,-0.333659 1.853837,-1.170289 2.289457,-2.109164 0.623339,-1.343456 0.294909,-3.510372 -0.660655,-4.358889 C 37.370787,79.549548 36.823796,79.232048 36.342271,79.01006 35.52187,78.631851 35.203123,78.602793 31.277536,78.548361 L 27.0883,78.490272 v 3.982741 3.982742 h 4.034766 c 3.185019,0 4.197183,-0.0573 4.805941,-0.272086 z M 35.586245,75.402941 c 1.669741,-0.771671 2.391202,-2.968974 1.524926,-4.644374 -0.841075,-1.62666 -1.924932,-1.941701 -6.680165,-1.941701 H 27.0883 v 3.540111 3.54011 l 3.836458,-0.05643 c 3.490932,-0.05135 3.910764,-0.09077 4.661487,-0.437716 z m 10.728443,2.321564 V 66.171032 h 1.5875 1.5875 v 11.553473 11.553472 h -1.5875 -1.5875 z"
         style="fill:#fb6907;stroke-width:0.176389" />
      <g
         transform="matrix(1.7651216,0,0,1.7545672,41.007161,-24.55088)"
         id="layer1-2"
         inkscape:label="Layer 1"
         style="fill:#ffffff;fill-opacity:1;stroke:none" />
    </g>
  </g>
</svg>
